<svg xmlns="http://www.w3.org/2000/svg" width="960" height="540" viewBox="0 0 960 540" role="img" aria-labelledby="t3">
  <title id="t3">Chi ti¿t ¡n hàng Admin (minh hÍa)</title>
  <rect width="960" height="540" fill="#f0f5f2"/>
  <rect x="40" y="32" width="880" height="476" rx="12" fill="#fff" stroke="#d4e5dc"/>
  <rect x="40" y="32" width="880" height="52" rx="12" fill="#006341"/>
  <text x="64" y="66" fill="#fff" font-family="Segoe UI, Arial, sans-serif" font-size="16" font-weight="700">Chi ti¿t ¡n · EE123456789VN</text>
  <rect x="64" y="108" width="380" height="360" rx="8" fill="#fafcfb" stroke="#e0ebe4"/>
  <text x="84" y="142" fill="#006341" font-family="Segoe UI, Arial, sans-serif" font-size="13" font-weight="700">Thông tin ¡n</text>
  <line x1="84" y1="154" x2="400" y2="154" stroke="#e8f0ec"/>
  <rect x="84" y="170" width="320" height="10" rx="2" fill="#ddeee4"/>
  <rect x="84" y="192" width="280" height="10" rx="2" fill="#e8f2ec"/>
  <rect x="84" y="214" width="300" height="10" rx="2" fill="#e8f2ec"/>
  <rect x="464" y="108" width="432" height="360" rx="8" fill="#fafcfb" stroke="#e0ebe4"/>
  <text x="484" y="142" fill="#006341" font-family="Segoe UI, Arial, sans-serif" font-size="13" font-weight="700">Timeline tracking</text>
  <circle cx="500" cy="178" r="6" fill="#006341"/>
  <line x1="500" y1="186" x2="500" y2="220" stroke="#b8d4c4" stroke-width="2"/>
  <circle cx="500" cy="228" r="6" fill="#27ae60"/>
  <line x1="500" y1="236" x2="500" y2="270" stroke="#b8d4c4" stroke-width="2"/>
  <circle cx="500" cy="278" r="6" fill="#bdc3c7"/>
  <text x="520" y="184" fill="#333" font-family="Segoe UI, Arial, sans-serif" font-size="12">new_order</text>
  <text x="520" y="234" fill="#333" font-family="Segoe UI, Arial, sans-serif" font-size="12">assigned_pickup</text>
  <text x="520" y="284" fill="#888" font-family="Segoe UI, Arial, sans-serif" font-size="12">picked_up &</text>
  <text x="480" y="510" text-anchor="middle" fill="#5a7a6a" font-family="Segoe UI, Arial, sans-serif" font-size="13">admin_order_detail.php  minh hÍa</text>
</svg>
