<svg xmlns="http://www.w3.org/2000/svg" width="960" height="540" viewBox="0 0 960 540" role="img" aria-labelledby="t2">
  <title id="t2">Dashboard realtime Admin (minh hÍa)</title>
  <defs>
    <linearGradient id="g2" x1="0" y1="0" x2="0" y2="1">
      <stop offset="0%" style="stop-color:#006341"/>
      <stop offset="100%" style="stop-color:#004d32"/>
    </linearGradient>
    <filter id="sh" x="-2%" y="-2%" width="104%" height="104%">
      <feDropShadow dx="0" dy="4" stdDeviation="8" flood-opacity="0.1"/>
    </filter>
  </defs>
  <rect width="960" height="540" fill="#eef4f0"/>
  <rect x="32" y="28" width="896" height="484" rx="12" fill="#fff" filter="url(#sh)"/>
  <rect x="32" y="28" width="200" height="484" fill="#0d4a32"/>
  <text x="52" y="68" fill="#ffcc00" font-family="Segoe UI, Arial, sans-serif" font-size="14" font-weight="700">EMS-LSS</text>
  <line x1="52" y1="88" x2="200" y2="88" stroke="#2a6b52" stroke-width="1"/>
  <text x="52" y="118" fill="#c8e6d8" font-family="Segoe UI, Arial, sans-serif" font-size="12">Dashboard</text>
  <text x="52" y="148" fill="#8fbcaa" font-family="Segoe UI, Arial, sans-serif" font-size="12">ˇn hŕng</text>
  <text x="52" y="178" fill="#8fbcaa" font-family="Segoe UI, Arial, sans-serif" font-size="12">Ng°Ýi důng</text>
  <rect x="252" y="48" width="656" height="44" rx="8" fill="url(#g2)"/>
  <text x="272" y="77" fill="#fff" font-family="Segoe UI, Arial, sans-serif" font-size="15" font-weight="600">Realtime  TŐng quan ˇn</text>
  <rect x="252" y="110" width="200" height="72" rx="8" fill="#fff" stroke="#d4e5dc"/>
  <text x="272" y="142" fill="#006341" font-family="Segoe UI, Arial, sans-serif" font-size="12" font-weight="600">ˇn mŰi</text>
  <text x="272" y="168" fill="#333" font-family="Segoe UI, Arial, sans-serif" font-size="22" font-weight="700">24</text>
  <rect x="472" y="110" width="200" height="72" rx="8" fill="#fff" stroke="#d4e5dc"/>
  <text x="492" y="142" fill="#006341" font-family="Segoe UI, Arial, sans-serif" font-size="12" font-weight="600">ang pickup</text>
  <text x="492" y="168" fill="#333" font-family="Segoe UI, Arial, sans-serif" font-size="22" font-weight="700">11</text>
  <rect x="692" y="110" width="200" height="72" rx="8" fill="#fff" stroke="#d4e5dc"/>
  <text x="712" y="142" fill="#006341" font-family="Segoe UI, Arial, sans-serif" font-size="12" font-weight="600">Callback l×i</text>
  <text x="712" y="168" fill="#c0392b" font-family="Segoe UI, Arial, sans-serif" font-size="22" font-weight="700">2</text>
  <rect x="252" y="200" width="656" height="260" rx="8" fill="#fafcfb" stroke="#e0ebe4"/>
  <line x1="272" y1="236" x2="888" y2="236" stroke="#e8f0ec"/>
  <rect x="272" y="248" width="600" height="28" rx="4" fill="#e8f4ee"/>
  <rect x="272" y="288" width="600" height="28" rx="4" fill="#f0f5f2"/>
  <rect x="272" y="328" width="600" height="28" rx="4" fill="#f0f5f2"/>
  <rect x="272" y="368" width="600" height="28" rx="4" fill="#f0f5f2"/>
  <text x="480" y="510" text-anchor="middle" fill="#5a7a6a" font-family="Segoe UI, Arial, sans-serif" font-size="13">admin_dashboard_realtime.php  minh hÍa</text>
</svg>
