<svg xmlns="http://www.w3.org/2000/svg" width="960" height="540" viewBox="0 0 960 540" role="img" aria-labelledby="t4">
  <title id="t4">Dashboard Operation / Hub (minh hÍa)</title>
  <rect width="960" height="540" fill="#e8f0ec"/>
  <rect x="36" y="36" width="888" height="468" rx="14" fill="#fff"/>
  <rect x="36" y="36" width="888" height="56" rx="14" fill="#004d32"/>
  <text x="64" y="74" fill="#ffcc00" font-family="Segoe UI, Arial, sans-serif" font-size="17" font-weight="800">OPERATION</text>
  <text x="220" y="74" fill="#c8e6d8" font-family="Segoe UI, Arial, sans-serif" font-size="14">Hub Ṗ Nh­n hàng &amp; Gán delivery</text>
  <rect x="64" y="120" width="400" height="160" rx="10" fill="#f4faf6" stroke="#006341" stroke-width="2"/>
  <text x="84" y="156" fill="#006341" font-family="Segoe UI, Arial, sans-serif" font-size="14" font-weight="700">ChÝ nh­n të pickup</text>
  <rect x="84" y="176" width="340" height="36" rx="6" fill="#fff" stroke="#c5ddd0"/>
  <rect x="84" y="224" width="140" height="40" rx="8" fill="#006341"/>
  <text x="154" y="250" text-anchor="middle" fill="#fff" font-family="Segoe UI, Arial, sans-serif" font-size="13" font-weight="600">Nh­n hàng</text>
  <rect x="488" y="120" width="408" height="320" rx="10" fill="#fafcfb" stroke="#d4e5dc"/>
  <text x="508" y="156" fill="#006341" font-family="Segoe UI, Arial, sans-serif" font-size="14" font-weight="700">Danh sách Ḃn tḂi hub</text>
  <rect x="508" y="176" width="368" height="32" rx="4" fill="#e8f4ee"/>
  <rect x="508" y="218" width="368" height="32" rx="4" fill="#f2f7f4"/>
  <rect x="508" y="260" width="368" height="32" rx="4" fill="#f2f7f4"/>
  <text x="480" y="510" text-anchor="middle" fill="#5a7a6a" font-family="Segoe UI, Arial, sans-serif" font-size="13">operation/dashboard.php  minh hÍa</text>
</svg>
